<?xml version="1.0" encoding="UTF-8"?>
<svg id="Layer_2" data-name="Layer 2" xmlns="http://www.w3.org/2000/svg" viewBox="0 0 1500 1227.27">
  <defs>
    <style>
      .cls-1 {
        fill: #565342;
      }

      .cls-1, .cls-2, .cls-3, .cls-4, .cls-5, .cls-6, .cls-7, .cls-8, .cls-9, .cls-10, .cls-11 {
        stroke-width: 0px;
      }

      .cls-2 {
        fill: #72632c;
      }

      .cls-3 {
        fill: #c4a988;
      }

      .cls-4 {
        fill: #bfb7a7;
      }

      .cls-5 {
        fill: #a88751;
      }

      .cls-6 {
        fill: #cec9b1;
      }

      .cls-7 {
        fill: #c1b2a6;
      }

      .cls-8 {
        fill: #978e78;
      }

      .cls-9 {
        fill: #fdf5ea;
      }

      .cls-10 {
        fill: #00be1c;
      }

      .cls-11 {
        fill: #008281;
      }
    </style>
  </defs>
  <g id="Layer_1-2" data-name="Layer 1">
    <g>
      <g>
        <ellipse class="cls-9" cx="750" cy="1047.47" rx="750" ry="179.79"/>
        <g>
          <path class="cls-6" d="m1109.02,715.32c-16.42,1.66-33.19,3.18-50.12,4.65,27.25,15.61,42.81,33.56,42.81,52.66,0,39.91-67.73,74.79-168.68,93.74,192.41-.41,350.26-.74,350.26-.74l-53.63-165.12c-4.87-14.99-18.85-25.12-34.61-25.08l-16.25.04c-5.63,8.95-11.01,14.53-11.72,15.23-23.36,23.06-51.84,24.46-58.07,24.62Z"/>
          <path class="cls-6" d="m415.48,772.65c0-19.27,15.85-37.36,43.54-53.07-15.23-1.34-30.28-2.75-45.09-4.24-5.56,0-35.16-.56-59.07-24.47-4.04-4.03-7.62-8.51-10.77-13.29l-22.72.06c-16.82.04-31.41,11.64-35.24,28.01l-38.01,162.17c1.7,0,153.33-.32,339.99-.71-103.12-18.77-172.63-54.03-172.63-94.46Z"/>
          <path class="cls-3" d="m441.41,974.38c0-29.9,24.46-54.36,54.36-54.36h725.8c29.9-.01,54.36,24.45,54.36,54.35v34.47c28.64.02,45.05.04,45.05.04l-37.69-143.23s-157.85.33-350.26.74c-51.12,9.6-110.73,15.13-174.44,15.13-62.08,0-120.25-5.25-170.49-14.4-186.66.39-338.29.71-339.99.71l-40.91,141.08c-.3-.3,97.02-.42,234.2-.44v-34.07Z"/>
          <path class="cls-5" d="m1275.93,1008.83v20.77c0,29.9-24.46,54.36-54.36,54.36H495.77c-29.9.01-54.36-24.45-54.36-54.35v-21.17c-137.18.03-234.49.15-234.2.44l32.69,99.95,1043.77-.02,37.31-99.95s-16.41-.01-45.05-.04Z"/>
          <path class="cls-7" d="m1221.56,920H495.77c-29.9.01-54.36,24.48-54.36,54.38v34.07s0,21.17,0,21.17c0,29.9,24.46,54.36,54.36,54.36h725.8c29.9-.01,54.36-24.48,54.36-54.37v-20.77s0-34.47,0-34.47c0-29.9-24.46-54.36-54.36-54.36Zm30.99,100.77c0,19.74-16.15,35.89-35.89,35.89H498.99c-19.74.01-35.89-16.14-35.89-35.88v-44.28c0-19.74,16.15-35.89,35.89-35.89h717.68c19.74-.01,35.89,16.14,35.89,35.88v44.28Z"/>
          <path class="cls-1" d="m498.99,940.62h717.68c19.81,0,35.89,16.08,35.89,35.89v44.28c0,19.81-16.08,35.89-35.89,35.89H498.99c-19.81,0-35.89-16.08-35.89-35.89v-44.28c0-19.81,16.08-35.89,35.89-35.89Z"/>
          <path class="cls-8" d="m1101.72,772.63c0-19.11-15.56-37.05-42.81-52.66-35.48,3.06-72.01,5.69-109.63,7.73-40.72,21.06-111.7,35.06-192.65,35.06-81.78,0-153.35-14.29-193.86-35.71-35.53-2.05-70.2-4.53-103.74-7.48-27.69,15.7-43.54,33.79-43.54,53.07,0,40.43,69.51,75.68,172.63,94.46,50.24,9.15,108.41,14.4,170.49,14.4,63.71,0,123.31-5.53,174.44-15.13,100.95-18.95,168.68-53.83,168.68-93.74Z"/>
          <path class="cls-2" d="m949.27,727.7c-52.08,2.83-106.12,4.62-162.07,5.04-78.5.59-153.35-1.59-224.44-5.69,40.5,21.43,112.07,35.71,193.86,35.71,80.95,0,151.93-14,192.65-35.06Z"/>
          <path class="cls-4" d="m413.93,715.34c14.81,1.5,29.86,2.9,45.09,4.24,33.55,2.94,68.21,5.43,103.74,7.48,71.08,4.09,145.93,6.27,224.44,5.69,55.95-.42,109.99-2.2,162.07-5.04,37.62-2.05,74.15-4.67,109.63-7.73,16.93-1.46,33.7-2.99,50.12-4.65,6.23-.16,34.71-1.56,58.07-24.62.7-.7,6.09-6.28,11.72-15.23,6.38-10.15,13.08-24.69,13.71-42.1.02-.67.04-1.22.04-1.59,9.78-86.27,16.01-183.49,14.99-289.85-.85-88.48-6.59-170.31-15-244.41,0-23.07-9.35-43.95-24.47-59.07-23.91-23.91-53.51-24.47-59.07-24.47C1001.95,5.35,886.19.03,762.76,0c-124.41-.04-241.04,5.3-348.84,14-23.07,0-43.95,9.35-59.07,24.47-19.26,19.26-23.4,45.01-24.47,59.07-6.44,76.8-10.56,159.33-11.11,246.98-.65,102.9,3.72,198.99,11.12,287.27,0,16.91,5.06,32.63,13.7,45.78,3.14,4.79,6.73,9.26,10.77,13.29,23.91,23.91,53.51,24.47,59.07,24.47Z"/>
          <path class="cls-4" d="m639.91,682.73c-1.92-19.89-3.85-39.78-5.8-59.68,3.45.06,6.9.12,10.35.17,1.81,19.89,3.61,39.78,5.39,59.66-3.31-.05-6.63-.1-9.94-.16Z"/>
          <path class="cls-4" d="m654.82,682.96c-1.71-19.88-3.44-39.77-5.19-59.66,3.45.05,6.9.1,10.35.15,1.61,19.88,3.2,39.76,4.78,59.65-3.31-.04-6.63-.09-9.94-.14Z"/>
          <path class="cls-4" d="m669.72,683.17c-1.51-19.88-3.04-39.76-4.58-59.64,3.45.05,6.9.09,10.35.13,1.4,19.88,2.79,39.75,4.17,59.63-3.31-.04-6.63-.08-9.94-.12Z"/>
          <path class="cls-4" d="m684.63,683.34c-1.31-19.88-2.63-39.75-3.97-59.63,3.45.04,6.9.07,10.35.11,1.2,19.87,2.38,39.75,3.56,59.62-3.31-.03-6.63-.06-9.94-.1Z"/>
          <path class="cls-4" d="m699.54,683.49c-1.11-19.87-2.23-39.74-3.36-59.61,3.45.03,6.9.06,10.35.08.99,19.87,1.98,39.74,2.95,59.61-3.31-.02-6.63-.05-9.94-.08Z"/>
          <path class="cls-4" d="m714.45,683.6c-.91-19.87-1.82-39.74-2.75-59.6,3.45.02,6.9.04,10.35.06.79,19.87,1.57,39.73,2.34,59.6-3.31-.02-6.63-.04-9.94-.06Z"/>
          <path class="cls-4" d="m729.36,683.68c-.71-19.87-1.42-39.73-2.14-59.6,3.45.02,6.9.03,10.35.04.58,19.86,1.16,39.73,1.73,59.59-3.31-.01-6.63-.02-9.94-.04Z"/>
          <path class="cls-4" d="m744.27,683.73c-.5-19.86-1.01-39.73-1.53-59.59,3.45,0,6.9.02,10.35.02.38,19.86.75,39.73,1.12,59.59-3.31,0-6.63,0-9.94-.02Z"/>
          <path class="cls-4" d="m759.18,683.75c-.3-19.86-.61-39.73-.92-59.59,3.45,0,6.9,0,10.35,0,.17,19.86.35,39.72.51,59.59-3.31,0-6.63,0-9.94,0Z"/>
          <path class="cls-4" d="m774.09,683.74c-.1-19.86-.21-39.73-.31-59.59,3.45,0,6.9-.02,10.35-.03-.03,19.86-.06,39.73-.09,59.59-3.31.01-6.63.02-9.94.03Z"/>
          <path class="cls-4" d="m789,683.69c.1-19.86.2-39.73.3-59.59,3.45-.01,6.9-.03,10.35-.05-.24,19.86-.47,39.73-.7,59.59-3.31.02-6.63.03-9.94.05Z"/>
          <path class="cls-4" d="m803.91,683.62c.3-19.86.6-39.73.91-59.59,3.45-.02,6.9-.04,10.35-.07-.44,19.87-.88,39.73-1.31,59.6-3.31.02-6.63.05-9.94.07Z"/>
          <path class="cls-4" d="m818.82,683.51c.5-19.87,1.01-39.73,1.52-59.6,3.45-.03,6.9-.06,10.35-.09-.65,19.87-1.29,39.74-1.92,59.6-3.31.03-6.63.06-9.94.09Z"/>
          <path class="cls-4" d="m833.73,683.38c.7-19.87,1.41-39.74,2.13-59.61,3.45-.04,6.9-.07,10.35-.11-.85,19.87-1.69,39.74-2.53,59.61-3.31.04-6.63.07-9.94.11Z"/>
          <path class="cls-4" d="m848.64,683.21c.91-19.87,1.82-39.74,2.74-59.62,3.45-.04,6.9-.09,10.35-.14-1.06,19.88-2.1,39.75-3.14,59.62-3.31.04-6.63.09-9.94.13Z"/>
          <path class="cls-4" d="m863.55,683.01c1.11-19.88,2.22-39.75,3.35-59.63,3.45-.05,6.9-.1,10.35-.16-1.26,19.88-2.51,39.76-3.75,59.64-3.31.05-6.63.1-9.94.15Z"/>
          <path class="cls-4" d="m1102.53,616.1c-4.23,20.03-8.43,40.06-12.6,60.09-48.88,2.25-97.77,3.99-146.68,5.24,2.18-19.91,4.38-39.82,6.6-59.73,50.9-1.33,101.79-3.19,152.67-5.59Z"/>
          <path class="cls-4" d="m939.31,621.96c-2.08,19.91-4.14,39.81-6.19,59.71-3.31.08-6.62.16-9.94.23,1.91-19.9,3.84-39.8,5.78-59.7,3.45-.08,6.9-.16,10.34-.25Z"/>
          <path class="cls-4" d="m923.79,622.33c-1.87,19.9-3.73,39.8-5.58,59.69-3.31.07-6.63.14-9.94.21,1.71-19.89,3.44-39.79,5.17-59.68,3.45-.07,6.9-.15,10.34-.23Z"/>
          <path class="cls-4" d="m908.28,622.66c-1.67,19.89-3.33,39.78-4.97,59.67-3.31.07-6.63.13-9.94.19,1.51-19.89,3.03-39.77,4.56-59.66,3.45-.07,6.9-.13,10.35-.2Z"/>
          <path class="cls-4" d="m892.76,622.96c-1.46,19.88-2.92,39.77-4.36,59.65-3.31.06-6.63.12-9.94.17,1.31-19.88,2.63-39.76,3.95-59.64,3.45-.06,6.9-.12,10.35-.18Z"/>
          <path class="cls-4" d="m628.94,622.96c2.02,19.89,4.02,39.79,6,59.68-3.31-.06-6.63-.12-9.94-.18-2.12-19.9-4.25-39.8-6.41-59.7,3.45.07,6.9.13,10.35.2Z"/>
          <path class="cls-4" d="m613.42,622.66c2.22,19.9,4.43,39.8,6.61,59.7-3.31-.07-6.63-.13-9.94-.2-2.32-19.91-4.66-39.81-7.02-59.72,3.45.08,6.9.15,10.34.22Z"/>
          <path class="cls-4" d="m597.9,622.33c2.43,19.91,4.83,39.82,7.22,59.73-3.31-.07-6.63-.15-9.94-.22-2.52-19.91-5.06-39.83-7.62-59.74,3.45.08,6.9.16,10.34.24Z"/>
          <path class="cls-4" d="m433.7,676.28c-4.7-20.05-9.44-40.1-14.22-60.16,50.87,2.4,101.77,4.26,152.67,5.59,2.77,19.93,5.51,39.85,8.23,59.77-48.9-1.23-97.8-2.97-146.68-5.2Z"/>
          <path class="cls-1" d="m580.37,681.48c-2.72-19.92-5.46-39.85-8.23-59.77-50.9-1.33-101.79-3.19-152.67-5.59,4.78,20.06,9.52,40.11,14.22,60.16,48.88,2.23,97.77,3.97,146.68,5.2Z"/>
          <path class="cls-1" d="m943.26,681.43c48.9-1.25,97.8-2.99,146.68-5.24,4.16-20.03,8.36-40.06,12.6-60.09-50.87,2.4-101.77,4.26-152.67,5.59-2.22,19.91-4.42,39.82-6.6,59.73Z"/>
          <path class="cls-1" d="m595.18,681.83c3.31.08,6.62.15,9.94.22-2.39-19.91-4.79-39.82-7.22-59.73-3.45-.08-6.9-.16-10.34-.24,2.56,19.92,5.11,39.83,7.62,59.74Z"/>
          <path class="cls-1" d="m610.09,682.16c3.31.07,6.63.14,9.94.2-2.18-19.9-4.39-39.8-6.61-59.7-3.45-.07-6.9-.14-10.34-.22,2.36,19.91,4.7,39.81,7.02,59.72Z"/>
          <path class="cls-1" d="m625,682.46c3.31.06,6.63.12,9.94.18-1.98-19.89-3.98-39.79-6-59.68-3.45-.06-6.9-.13-10.35-.2,2.15,19.9,4.29,39.8,6.41,59.7Z"/>
          <path class="cls-1" d="m644.46,623.22c-3.45-.06-6.9-.11-10.35-.17,1.95,19.89,3.88,39.78,5.8,59.68,3.31.06,6.63.11,9.94.16-1.78-19.89-3.58-39.77-5.39-59.66Z"/>
          <path class="cls-1" d="m659.97,623.46c-3.45-.05-6.9-.1-10.35-.15,1.74,19.89,3.47,39.77,5.19,59.66,3.31.05,6.63.1,9.94.14-1.58-19.88-3.17-39.76-4.78-59.65Z"/>
          <path class="cls-1" d="m675.49,623.66c-3.45-.04-6.9-.08-10.35-.13,1.54,19.88,3.07,39.76,4.58,59.64,3.31.04,6.63.08,9.94.12-1.38-19.88-2.77-39.75-4.17-59.63Z"/>
          <path class="cls-1" d="m691.01,623.82c-3.45-.03-6.9-.07-10.35-.11,1.33,19.88,2.66,39.75,3.97,59.63,3.31.03,6.63.07,9.94.1-1.18-19.87-2.36-39.75-3.56-59.62Z"/>
          <path class="cls-1" d="m706.53,623.96c-3.45-.03-6.9-.05-10.35-.08,1.13,19.87,2.25,39.74,3.36,59.61,3.31.03,6.63.05,9.94.08-.98-19.87-1.96-39.74-2.95-59.61Z"/>
          <path class="cls-1" d="m722.05,624.06c-3.45-.02-6.9-.04-10.35-.06.93,19.87,1.84,39.74,2.75,59.6,3.31.02,6.63.04,9.94.06-.77-19.87-1.55-39.73-2.34-59.6Z"/>
          <path class="cls-1" d="m737.57,624.12c-3.45-.01-6.9-.02-10.35-.04.72,19.87,1.43,39.73,2.14,59.6,3.31.01,6.63.03,9.94.04-.57-19.86-1.15-39.73-1.73-59.59Z"/>
          <path class="cls-1" d="m753.09,624.15c-3.45,0-6.9,0-10.35-.02.52,19.86,1.03,39.73,1.53,59.59,3.31,0,6.63.01,9.94.02-.37-19.86-.75-39.73-1.12-59.59Z"/>
          <path class="cls-1" d="m768.61,624.16c-3.45,0-6.9,0-10.35,0,.31,19.86.62,39.73.92,59.59,3.31,0,6.63,0,9.94,0-.17-19.86-.34-39.73-.51-59.59Z"/>
          <path class="cls-1" d="m784.13,624.12c-3.45.01-6.9.02-10.35.03.11,19.86.21,39.72.31,59.59,3.31,0,6.63-.01,9.94-.03.03-19.86.06-39.73.09-59.59Z"/>
          <path class="cls-1" d="m799.65,624.06c-3.45.02-6.9.03-10.35.05-.1,19.86-.2,39.73-.3,59.59,3.31-.01,6.63-.03,9.94-.05.23-19.86.47-39.73.7-59.59Z"/>
          <path class="cls-1" d="m815.17,623.96c-3.45.03-6.9.05-10.35.07-.3,19.86-.61,39.73-.91,59.59,3.31-.02,6.63-.04,9.94-.07.44-19.87.87-39.73,1.31-59.6Z"/>
          <path class="cls-1" d="m830.69,623.82c-3.45.03-6.9.06-10.35.09-.51,19.87-1.01,39.73-1.52,59.6,3.31-.03,6.63-.06,9.94-.09.64-19.87,1.28-39.74,1.92-59.6Z"/>
          <path class="cls-1" d="m846.2,623.66c-3.45.04-6.9.08-10.35.11-.71,19.87-1.42,39.74-2.13,59.61,3.31-.03,6.63-.07,9.94-.11.84-19.87,1.68-39.74,2.53-59.61Z"/>
          <path class="cls-1" d="m861.72,623.46c-3.45.05-6.9.09-10.35.14-.92,19.87-1.83,39.74-2.74,59.62,3.31-.04,6.63-.08,9.94-.13,1.04-19.87,2.09-39.75,3.14-59.62Z"/>
          <path class="cls-1" d="m877.24,623.23c-3.45.06-6.9.11-10.35.16-1.12,19.88-2.24,39.75-3.35,59.63,3.31-.05,6.63-.1,9.94-.15,1.24-19.88,2.49-39.76,3.75-59.64Z"/>
          <path class="cls-1" d="m878.46,682.78c3.31-.05,6.63-.11,9.94-.17,1.44-19.88,2.9-39.77,4.36-59.65-3.45.06-6.9.12-10.35.18-1.33,19.88-2.65,39.76-3.95,59.64Z"/>
          <path class="cls-1" d="m893.37,682.52c3.31-.06,6.63-.12,9.94-.19,1.64-19.89,3.3-39.78,4.97-59.67-3.45.07-6.9.14-10.35.2-1.53,19.89-3.05,39.77-4.56,59.66Z"/>
          <path class="cls-1" d="m908.27,682.23c3.31-.07,6.62-.14,9.94-.21,1.85-19.9,3.71-39.79,5.58-59.69-3.45.08-6.9.15-10.34.23-1.74,19.89-3.46,39.79-5.17,59.68Z"/>
          <path class="cls-1" d="m923.18,681.91c3.31-.07,6.62-.15,9.94-.23,2.05-19.9,4.11-39.81,6.19-59.71-3.45.09-6.9.17-10.34.25-1.94,19.9-3.87,39.8-5.78,59.7Z"/>
          <path class="cls-11" d="m1017.14,572.05c-71.9,6.62-150.47,11.01-234.87,11.58-98.94.67-190.19-4.01-272.41-11.57-4.06,0-25.66-.37-43.11-16.27-11.03-10.05-17.86-23.94-17.86-39.28-5.4-58.71-8.59-122.61-8.12-191.04.4-58.28,3.41-113.17,8.11-164.24.78-9.35,3.8-26.48,17.86-39.28,11.03-10.05,26.27-16.27,43.11-16.27,78.68-5.79,163.79-9.34,254.59-9.31,90.08.02,174.56,3.56,252.69,9.3,4.06,0,25.66.37,43.11,16.27,11.03,10.05,17.86,23.94,17.86,39.28,6.14,49.28,10.33,103.69,10.95,162.53.75,70.73-3.8,135.38-10.94,192.75,0,.25-.01.62-.03,1.06-.87,21.78-17.46,37.13-18.56,38.12-17.05,15.33-37.83,16.27-42.38,16.37Z"/>
        </g>
      </g>
      <g>
        <path class="cls-10" d="m533.1,1020.26h-6.69v-38.76h19.44v6.4h6.4v13.09h-6.4v6.46h-6.63v-6.69h6.34v-12.57h-12.45v32.06Z"/>
        <path class="cls-10" d="m571.57,1013.86h-6.4v-25.95h6.4v-6.4h25.95v6.4h6.4v25.95h-6.4v6.4h-25.95v-6.4Zm25.66-.29v-25.37h-25.37v25.37h25.37Z"/>
        <path class="cls-10" d="m623.55,1020.26h-6.69v-38.76h19.49v6.4h6.4v13.09h-6.4v6.17h6.4v6.4h6.4v6.69h-6.69v-6.4h-6.4v-6.4h-12.51v12.8Zm0-32.06v12.57h12.51v-12.57h-12.51Z"/>
        <path class="cls-10" d="m668.65,1020.26h-6.69v-32.06h-12.8v-6.69h32.3v6.69h-12.8v32.06Z"/>
        <path class="cls-10" d="m694.61,1020.26h-6.69v-38.76h25.84v6.69h-19.15v12.57h19.15v6.69h-19.15v12.8Z"/>
        <path class="cls-10" d="m733.08,1013.86h-6.4v-25.95h6.4v-6.4h25.95v6.4h6.4v25.95h-6.4v6.4h-25.95v-6.4Zm25.66-.29v-25.37h-25.37v25.37h25.37Z"/>
        <path class="cls-10" d="m778.37,981.5h6.69v32.07h19.15v6.69h-25.84v-38.76Z"/>
        <path class="cls-10" d="m817.13,981.5h6.46v38.76h-6.46v-38.76Z"/>
        <path class="cls-10" d="m842.91,1013.86h-6.4v-25.95h6.4v-6.4h25.95v6.4h6.4v25.95h-6.4v6.4h-25.95v-6.4Zm25.66-.29v-25.37h-25.37v25.37h25.37Z"/>
        <path class="cls-10" d="m888.19,1013.8h6.46v6.46h-6.46v-6.46Z"/>
        <path class="cls-10" d="m907.57,1013.8h6.46v6.46h-6.46v-6.46Z"/>
        <path class="cls-10" d="m926.95,1013.8h6.46v6.46h-6.46v-6.46Z"/>
      </g>
    </g>
  </g>
</svg>