<?xml version="1.0" encoding="utf-8"?>
<!-- Generator: Adobe Illustrator 27.9.0, SVG Export Plug-In . SVG Version: 6.00 Build 0)  -->
<svg version="1.1" id="Layer_1" xmlns="http://www.w3.org/2000/svg" xmlns:xlink="http://www.w3.org/1999/xlink" x="0px" y="0px"
	 viewBox="0 0 534 442" style="enable-background:new 0 0 534 442;" xml:space="preserve">
<style type="text/css">
	.st0{fill:none;}
	.st1{fill:#37BC9B;}
	.st2{fill:#F2F2F2;}
	.st3{opacity:0.7;fill:url(#SVGID_1_);enable-background:new    ;}
	.st4{fill:#212529;}
	.st5{opacity:0.1;enable-background:new    ;}
	.st6{fill:#EEEEEE;}
	.st7{fill:none;stroke:#873F3F;stroke-width:8;stroke-miterlimit:10;}
	.st8{fill:#D0CDE1;}
	.st9{fill:none;stroke:#BDBDBD;stroke-width:5;stroke-miterlimit:10;}
	.st10{fill:#B84733;}
	.st11{fill:#E9573F;}
	.st12{fill:#3F3D56;}
	.st13{opacity:5.000000e-02;enable-background:new    ;}
	.st14{fill:#FDA57D;}
	.st15{opacity:5.000000e-02;fill-opacity:0.7;enable-background:new    ;}
	.st16{fill:#2F2E41;}
	.st17{fill:#495057;}
	.st18{fill:url(#SVGID_00000013154607220855465020000003320275564104452274_);}
	.st19{fill:#873F3F;}
	.st20{fill:#535461;}
	.st21{opacity:0.7;fill:url(#SVGID_00000061469283408976062730000014870272491100145846_);enable-background:new    ;}
	.st22{fill:#3E3F49;}
	.st23{fill:#E0E0E0;}
</style>
<path d="M223.6,128c1.1-1.6-0.2-3,0-7.2c0.3-5.4,3.4-6.3,2.2-10.2c-1.2-3.9-3.1-6.5-3.9-7.3c-2.8-2.9-6.1-3.8-7.4-4.1
	c0.1-2.1,0.4-5.1,1.4-8.8c1-3.7,1.3-4.1,2.2-6.4c1.8-4.7,1.1-10.3-1.8-14.5c-2.1-3-5.3-5.5-6.3-9c-1.2-4.2,0.8-5.1,0.3-10.6
	c-0.1-1.1-1.1-10.9-7.3-14c-2.5-1.3-4.3-0.7-7.1-2.9c-2-1.6-2.9-3.2-3.7-4.4c-2.9-4.6-8.4-8.5-13.6-9.8c-7.1-1.8-14.4,1-16.4,1.8
	c-4.5,1.8-5.8,2-11.5,3.4c-1.7,0.4-3.2,0.2-5.3,1c-0.7,0.3-1.2,0.6-1.6,0.8c-0.5,0.2-1.2,0.6-2,1c-1.4,0.8-2.5,1.6-3.7,2.5
	c-4.1,3.2-6.7,6.1-6.7,6.1c-1.4,1.5-4.3,4.7-6.4,8.7c-0.8,1.5-5.9,11.5-3,22.9c1.9,7.3,5.2,8.1,4.8,13.3c-0.5,5.9-5,6.6-7.3,13.1
	c-3.2,9,4,12.5,2.3,22.7c-1.8,11.1-11.3,12.6-11.2,22c0,5.8,3.7,13.2,9.4,15.3c11.6,4.4,21.5-21.7,46.2-27.8
	c11.4-2.8,21.7-0.4,27.9,1.6c8.2,1.1,15.2,1.9,20.5,2.4C218.3,129.9,222.1,130.2,223.6,128z"/>
<rect class="st0" width="534" height="442"/>
<path class="st1" d="M81.1,355.6c0,26.7-15.9,36.1-35.5,36.1c-0.5,0-0.9,0-1.4,0c-0.9,0-1.8-0.1-2.7-0.1
	c-17.7-1.3-31.4-11.1-31.4-35.9c0-25.7,32.9-58.2,35.3-60.6l0,0c0.1-0.1,0.1-0.1,0.1-0.1S81.1,328.8,81.1,355.6z"/>
<path class="st2" d="M44.3,387.5l13-18.1l-13,20.1l0,2.1c-0.9,0-1.8-0.1-2.7-0.1l1.4-26.7l0-0.2l0,0l0.1-2.5l-13-20.2l13.1,18.3
	l0,0.5l1.1-20.2l-11.2-20.8l11.3,17.3l1.1-41.9l0-0.1v0.1l-0.2,33l11.1-13.1l-11.2,15.9l-0.3,18.1l10.4-17.4l-10.4,20l-0.2,10.1
	l15.1-24.2l-15.1,27.7L44.3,387.5z"/>
<linearGradient id="SVGID_1_" gradientUnits="userSpaceOnUse" x1="480.8295" y1="246.148" x2="480.8295" y2="282.191" gradientTransform="matrix(1 0 0 -1 0 444)">
	<stop  offset="0" style="stop-color:#808080;stop-opacity:0.25"/>
	<stop  offset="0.5351" style="stop-color:#808080;stop-opacity:0.12"/>
	<stop  offset="1" style="stop-color:#808080;stop-opacity:0.1"/>
</linearGradient>
<path class="st3" d="M492.7,168.2v-6.4h-32.2v29.8c0,1.7,0.7,3.3,1.8,4.4c1.2,1.2,2.8,1.8,4.4,1.8h19.6c1.7,0,3.3-0.7,4.4-1.8
	c1.2-1.2,1.8-2.8,1.8-4.4V185c2.2,0,4.3-0.9,5.9-2.4c1.6-1.6,2.5-3.7,2.5-5.9c0-2.2-0.9-4.3-2.5-5.9
	C497.1,169.1,495,168.2,492.7,168.2z M492.7,181.8v-10.3c1.4,0,2.7,0.5,3.6,1.5c1,1,1.5,2.3,1.5,3.6c0,1.4-0.5,2.7-1.5,3.6
	C495.4,181.2,494.1,181.8,492.7,181.8z"/>
<path class="st4" d="M492.6,169c-1.5,0-3,0.4-4.2,1.3c-1.3,0.8-2.2,2-2.8,3.4c-0.6,1.4-0.7,2.9-0.4,4.4c0.3,1.5,1,2.8,2.1,3.9
	c1.1,1.1,2.4,1.8,3.9,2.1s3,0.1,4.4-0.4c1.4-0.6,2.6-1.6,3.4-2.8c0.8-1.3,1.3-2.7,1.3-4.2c0-2-0.8-4-2.2-5.4
	C496.6,169.8,494.7,169,492.6,169z M492.6,181.3c-0.9,0-1.8-0.3-2.6-0.8c-0.8-0.5-1.4-1.2-1.7-2.1c-0.4-0.9-0.4-1.8-0.3-2.7
	s0.6-1.7,1.3-2.4c0.7-0.7,1.5-1.1,2.4-1.3c0.9-0.2,1.9-0.1,2.7,0.3c0.9,0.4,1.6,1,2.1,1.7s0.8,1.7,0.8,2.6c0,1.2-0.5,2.4-1.4,3.3
	C495.1,180.8,493.9,181.3,492.6,181.3z"/>
<path class="st4" d="M462.3,163.4h29.4v27.1c0,1.5-0.6,3-1.7,4.1c-1.1,1.1-2.5,1.7-4.1,1.7h-17.9c-1.5,0-3-0.6-4.1-1.7
	c-1.1-1.1-1.7-2.5-1.7-4.1V163.4z"/>
<path class="st5" d="M486.4,163.4v27.2c0,1.5-0.6,3-1.7,4.1c-1.1,1.1-2.5,1.7-4.1,1.7h2.9c1.5,0,3-0.6,4.1-1.7
	c1.1-1.1,1.7-2.5,1.7-4.1v-27.2H486.4z"/>
<path class="st6" d="M468.1,141.5c-0.3,0-0.5,0.1-0.7,0.2c-0.2,0.1-0.4,0.3-0.6,0.5c-0.4,0.7,0.3,1.5,1,2c1.2,0.9,2.4,1.8,3.2,3
	c0.8,1.2,1.1,3,0.2,4.2c-1.1,1.6-3.9,1.9-4.1,3.8c-0.2,1.2,0.9,2.3,2,2.9c2.6,1.5,6.1,1.9,8,4.3c0.8-1.6,2.6-2.6,4.3-3
	c1.8-0.4,3.6-0.4,5.4-0.6c0.3,0,0.6-0.1,0.8-0.2c0.3-0.1,0.5-0.3,0.7-0.6c0.5-1-0.9-2.2-0.4-3.3c0.4-0.8,1.5-0.7,2.3-1
	c1.3-0.5,1.9-2.2,1.5-3.5c-0.4-1.4-1.4-2.4-2.5-3.3c-3-2.3-6.6-3.7-10.2-4.7c-1.7-0.5-3.7-1.2-5.4-1.3
	C471.7,140.7,469.8,141.2,468.1,141.5z"/>
<path class="st7" d="M261.9,203.2l-61.4,191.4"/>
<path class="st8" d="M221.1,156l32.5,34.5c0.7,0.7,1.5,1.3,2.5,1.6c0.9,0.3,1.9,0.4,2.9,0.3c1-0.1,1.9-0.5,2.8-1
	c0.8-0.6,1.5-1.3,2-2.2l36-64.5l-10-3.5l-29.5,42.5c0,0-55.5-57.8-63.2-54.9C189.1,111.6,221.1,156,221.1,156z"/>
<path class="st9" d="M159.1,275.3l-47.9,124.1"/>
<path class="st9" d="M182.7,275.3l47.9,124.1"/>
<path class="st10" d="M170.9,291.2c30.7,0,55.5-6.7,55.5-15.1s-24.9-15.1-55.5-15.1c-30.7,0-55.5,6.7-55.5,15.1
	S140.2,291.2,170.9,291.2z"/>
<path class="st11" d="M170.9,290.1c30.7,0,55.5-6.7,55.5-15.1c0-8.3-24.9-15.1-55.5-15.1c-30.7,0-55.5,6.7-55.5,15.1
	C115.3,283.3,140.2,290.1,170.9,290.1z"/>
<path class="st9" d="M147.5,302.5l52.4,16.1"/>
<path class="st9" d="M194.2,302.5l-52.4,16.1"/>
<path class="st8" d="M171.5,107.5H188c8.8,0,17.2,3.5,23.4,9.7c6.2,6.2,9.7,14.6,9.7,23.4V228h-94.5v-75.6
	c0-11.9,4.7-23.4,13.2-31.8S159.6,107.5,171.5,107.5z"/>
<path class="st12" d="M126.6,228h94.5v51.4h-52.6c-11.1,0-21.8-4.4-29.7-12.3c-7.9-7.9-12.3-18.5-12.3-29.7V228z"/>
<path class="st13" d="M127.8,143l57.8,54.9h63.8v-8.3l-54.9-15.9l-47-58C147.5,115.7,126.2,128.8,127.8,143z"/>
<path class="st8" d="M127.8,141.8l57.8,54.9h63.8v-8.3l-54.9-15.9l-47-58C147.5,114.5,126.2,127.7,127.8,141.8z"/>
<path class="st14" d="M249.5,188.5c0,0,30.7,2.4,22.5,8.3h-22.5V188.5z"/>
<path class="st14" d="M289.6,121.1c0,0,7.7-23,13-16.5c5.3,6.5-3,20.1-3,20.1L289.6,121.1z"/>
<path class="st13" d="M126.6,228v2.8l94.5,0.2v-3H126.6z"/>
<path class="st12" d="M200.1,282.7l63.6,5.8l3.5,129.8l22.8-7.4c0,0,34-147.1,1.6-159.5C259,239,223.9,222.7,203,236
	C182,249.3,200.1,282.7,200.1,282.7z"/>
<path class="st5" d="M204,242.8c0,0,34.9,17.7,39.6,37.8L204,242.8z"/>
<path class="st12" d="M148.4,273.9L198,314l-55.5,89.2l23,6.5c0,0,96.3-82.7,76.2-111.1c-20.1-28.4-40.2-61.4-65-62
	C152,236.1,148.4,273.9,148.4,273.9z"/>
<path class="st15" d="M244.7,148.3l12.4,21.3l3-5.9L244.7,148.3z"/>
<path class="st16" d="M143.8,403.3c0,0-18.3,14.2-4.1,18.9c14.2,4.7,43.1,8.3,43.1,8.3s4.7-8.3-1.8-11.8c-6.5-3.5-15.4-1.8-15.4-1.8
	l1.2-7.1L143.8,403.3z"/>
<path class="st16" d="M267.7,417.9c0,0-8,22.3,6.5,18.8c14.5-3.5,41-15.8,41-15.8s-0.4-9.5-7.8-9.1c-7.4,0.4-14,6.6-14,6.6l-3.2-7.9
	L267.7,417.9z"/>
<path class="st14" d="M173.8,86.8L173.8,86.8c-6.5,0-11.8,5.3-11.8,11.8v11.8c0,6.5,5.3,11.8,11.8,11.8l0,0
	c6.5,0,11.8-5.3,11.8-11.8V98.7C185.6,92.1,180.4,86.8,173.8,86.8z"/>
<path class="st13" d="M173.8,88c-3.1,0-6.1,1.2-8.4,3.5c-2.2,2.2-3.5,5.2-3.5,8.4v4c7.7,2.5,16,2.5,23.6,0v-4c0-3.1-1.2-6.1-3.5-8.4
	C180,89.3,177,88,173.8,88z"/>
<path class="st14" d="M174.5,101.6c13.3,0,24.1-13.7,24.1-30.6s-10.8-30.6-24.1-30.6c-13.3,0-24.1,13.7-24.1,30.6
	S161.2,101.6,174.5,101.6z"/>
<path class="st13" d="M136,65c0,0,9.5,2.4,14.8-8.3c5.3-10.7,9.5-16.6,31.3-10.3c21.9,6.3,26.3,7.1,27.3,1.1
	c0.7-4.1-7.1-14.1-12.1-20c-2.4-2.9-6.4-4.6-10.7-4.6H162l-14.8,6.8L136,39.7l-2.4,13.2L136,65z"/>
<path d="M141,68.9c1.4,0.1,3.7,0.1,6.2-0.7c3.2-0.9,3.7-2.1,8-4.1c5-2.4,5.8-1.5,8-3.4c2.7-2.3,1.8-3.9,4.5-6.8
	c2-2.2,6.4-5.5,9.7-4.2c3.4,1.3,2.9,6.2,6.8,7.5c2.4,0.8,3.3-0.9,5.4-0.2c5.4,1.7,4.6,15.2,7.7,15.5c2,0.2,4-4.9,4.6-6.5
	c2.3-5.8-1.5-9.4-1.7-10.9c-1.4-11-6.3-18.5-7-19.4c-2.1-2.6-5.5-4.1-9.1-4.1h-21l-12.6,6.1l-9.6,8.7L139,58L141,68.9z"/>
<path class="st14" d="M148.9,79.4c2.1,0,3.8-3.4,3.8-7.7c0-4.2-1.7-7.7-3.8-7.7s-3.8,3.4-3.8,7.7C145.1,76,146.8,79.4,148.9,79.4z"
	/>
<path class="st17" d="M71.7,381.2H19.4C8.7,381.2,0,389.9,0,400.6l0,0c0,10.7,8.7,19.4,19.4,19.4h52.3c10.7,0,19.4-8.7,19.4-19.4
	C91,389.9,82.4,381.2,71.7,381.2z"/>
<linearGradient id="SVGID_00000077303451104547090840000007245882867079975588_" gradientUnits="userSpaceOnUse" x1="340.241" y1="-660.33" x2="340.241" y2="-655.02" gradientTransform="matrix(1 0 0 -1 0 444)">
	<stop  offset="0" style="stop-color:#808080;stop-opacity:0.25"/>
	<stop  offset="0.5351" style="stop-color:#808080;stop-opacity:0.12"/>
	<stop  offset="1" style="stop-color:#808080;stop-opacity:0.1"/>
</linearGradient>
<path style="fill:url(#SVGID_00000077303451104547090840000007245882867079975588_);" d="M340.2,242.9c0.2,0,0.4-0.1,0.6-0.3
	c0.2-0.2,0.2-0.4,0.2-0.6c0-0.2-0.1-0.5-0.2-0.6c-0.2-0.2-0.4-0.3-0.6-0.3c-0.2,0-0.4,0.1-0.6,0.3c-0.2,0.2-0.2,0.4-0.2,0.6
	c0,0.2,0.1,0.4,0.2,0.6C339.8,242.8,340,242.9,340.2,242.9z"/>
<path class="st7" d="M470.3,203.2l61.4,218.6"/>
<path class="st19" d="M532,196.8H200.2v12.9H532V196.8z"/>
<path class="st20" d="M332.5,193.8h-46.7c-2.1,0-3.8,1.7-3.8,3.8l0,0c0,2.1,1.7,3.8,3.8,3.8h46.7c2.1,0,3.8-1.7,3.8-3.8
	C336.3,195.5,334.6,193.8,332.5,193.8z"/>
<linearGradient id="SVGID_00000135651160011859870380000012197894088126528385_" gradientUnits="userSpaceOnUse" x1="382.5815" y1="-31529" x2="382.5815" y2="-16762.9004" gradientTransform="matrix(1 0 0 -1 0 444)">
	<stop  offset="0" style="stop-color:#808080;stop-opacity:0.25"/>
	<stop  offset="0.5351" style="stop-color:#808080;stop-opacity:0.12"/>
	<stop  offset="1" style="stop-color:#808080;stop-opacity:0.1"/>
</linearGradient>
<path style="opacity:0.7;fill:url(#SVGID_00000135651160011859870380000012197894088126528385_);enable-background:new    ;" d="
	M433.5,108.2H331.7c-9.2,0-16.7,7.5-16.7,16.7v60.1c0,9.2,7.5,16.7,16.7,16.7h101.8c9.2,0,16.7-7.5,16.7-16.7v-60.1
	C450.1,115.6,442.7,108.2,433.5,108.2z"/>
<path class="st22" d="M429.6,109.9h-96.3c-8.8,0-15.9,7.1-15.9,15.9v60c0,8.8,7.1,15.9,15.9,15.9h96.3c8.8,0,15.9-7.1,15.9-15.9v-60
	C445.4,117,438.3,109.9,429.6,109.9z"/>
<path class="st20" d="M431.3,109.9h-96.3c-8.8,0-15.9,7.1-15.9,15.9v60c0,8.8,7.1,15.9,15.9,15.9h96.3c8.8,0,15.9-7.1,15.9-15.9v-60
	C447.2,117,440.1,109.9,431.3,109.9z"/>
<path class="st23" d="M389.2,159.2c2.3,0,4.1-1.9,4.1-4.1c0-2.3-1.9-4.1-4.1-4.1s-4.1,1.9-4.1,4.1
	C385,157.4,386.9,159.2,389.2,159.2z"/>
</svg>
