<?xml version="1.0" encoding="UTF-8"?>
<svg id="Layer_2" data-name="Layer 2" xmlns="http://www.w3.org/2000/svg" xmlns:xlink="http://www.w3.org/1999/xlink" viewBox="0 0 630.88 516.17">
  <defs>
    <style>
      .cls-1 {
        clip-path: url(#clippath);
      }

      .cls-2, .cls-3 {
        fill: #71736b;
      }

      .cls-4 {
        fill: #565342;
      }

      .cls-4, .cls-5, .cls-3, .cls-6, .cls-7, .cls-8, .cls-9, .cls-10, .cls-11, .cls-12, .cls-13 {
        stroke-width: 0px;
      }

      .cls-5 {
        fill: #72632c;
      }

      .cls-6 {
        fill: #c4a988;
      }

      .cls-7 {
        fill: #bfb7a7;
      }

      .cls-8 {
        fill: #d7d0c5;
      }

      .cls-9 {
        fill: #a88751;
      }

      .cls-10 {
        fill: #cec9b1;
      }

      .cls-11 {
        fill: #c1b2a6;
      }

      .cls-12 {
        fill: #978e78;
      }

      .cls-13 {
        fill: #fdf5ea;
      }
    </style>
    <clipPath id="clippath">
      <path class="cls-3" d="m427.8,240.6c-30.24,2.78-63.29,4.63-98.78,4.87-41.61.28-79.99-1.69-114.57-4.87-1.71,0-10.79-.16-18.13-6.84-4.64-4.23-7.51-10.07-7.51-16.52-2.27-24.69-3.61-51.57-3.41-80.35.17-24.51,1.43-47.6,3.41-69.08.33-3.93,1.6-11.14,7.51-16.52,4.64-4.23,11.05-6.84,18.13-6.84,33.09-2.43,68.89-3.93,107.08-3.92,37.88,0,73.42,1.5,106.28,3.91,1.71,0,10.79.16,18.13,6.84,4.64,4.23,7.51,10.07,7.51,16.52,2.58,20.72,4.34,43.61,4.6,68.36.31,29.75-1.6,56.94-4.6,81.07,0,.11,0,.26-.01.45-.36,9.16-7.34,15.62-7.8,16.03-7.17,6.45-15.91,6.84-17.82,6.89Z"/>
    </clipPath>
  </defs>
  <g id="Layer_1-2" data-name="Layer 1">
    <g>
      <ellipse class="cls-13" cx="315.44" cy="440.56" rx="315.44" ry="75.62"/>
      <g>
        <g>
          <path class="cls-10" d="m466.44,300.86c-6.91.7-13.96,1.34-21.08,1.95,11.46,6.56,18.01,14.11,18.01,22.15,0,16.79-28.49,31.46-70.95,39.43,80.93-.17,147.31-.31,147.31-.31l-22.55-69.45c-2.05-6.3-7.93-10.57-14.56-10.55l-6.83.02c-2.37,3.77-4.63,6.11-4.93,6.41-9.83,9.7-21.8,10.29-24.42,10.36Z"/>
          <path class="cls-10" d="m174.75,324.97c0-8.11,6.67-15.71,18.31-22.32-6.41-.56-12.74-1.15-18.96-1.78-2.34,0-14.79-.23-24.84-10.29-1.7-1.7-3.21-3.58-4.53-5.59l-9.56.02c-7.07.02-13.21,4.89-14.82,11.78l-15.98,68.21c.71,0,64.49-.13,142.99-.3-43.37-7.9-72.61-22.72-72.61-39.73Z"/>
          <path class="cls-6" d="m185.65,409.81c0-12.58,10.29-22.86,22.86-22.86h305.26c12.58,0,22.86,10.28,22.86,22.86v14.5c12.05,0,18.95.02,18.95.02l-15.85-60.24s-66.39.14-147.31.31c-21.5,4.04-46.57,6.36-73.37,6.36-26.11,0-50.58-2.21-71.71-6.06-78.51.16-142.28.3-142.99.3l-17.21,59.34c-.12-.12,40.8-.18,98.5-.19v-14.33Z"/>
          <path class="cls-9" d="m536.64,424.3v8.74c0,12.58-10.29,22.86-22.86,22.86H208.51c-12.58,0-22.86-10.28-22.86-22.86v-8.91c-57.7.01-98.63.06-98.5.19l13.75,42.04h439s15.69-42.05,15.69-42.05c0,0-6.9,0-18.95-.02Z"/>
          <path class="cls-11" d="m513.78,386.94H208.51c-12.58,0-22.86,10.29-22.86,22.87v14.33s0,8.91,0,8.91c0,12.58,10.29,22.86,22.86,22.86h305.26c12.58,0,22.86-10.29,22.86-22.87v-8.74s0-14.5,0-14.5c0-12.58-10.29-22.86-22.86-22.86Zm13.04,42.38c0,8.3-6.79,15.1-15.09,15.1H209.87c-8.3,0-15.1-6.79-15.1-15.09v-18.62c0-8.3,6.79-15.1,15.09-15.1h301.85c8.3,0,15.1,6.79,15.1,15.09v18.62Z"/>
          <rect class="cls-4" x="194.77" y="395.61" width="332.04" height="48.81" rx="15.1" ry="15.1"/>
          <path class="cls-12" d="m463.37,324.96c0-8.04-6.55-15.58-18.01-22.15-14.92,1.29-30.29,2.39-46.11,3.25-17.13,8.86-46.98,14.75-81.03,14.75-34.4,0-64.5-6.01-81.53-15.02-14.95-.86-29.52-1.91-43.63-3.14-11.65,6.6-18.31,14.21-18.31,22.32,0,17,29.24,31.83,72.61,39.73,21.13,3.85,45.6,6.06,71.71,6.06,26.79,0,51.86-2.33,73.37-6.36,42.46-7.97,70.95-22.64,70.95-39.43Z"/>
          <path class="cls-5" d="m399.25,306.06c-21.91,1.19-44.63,1.94-68.17,2.12-33.02.25-64.5-.67-94.4-2.39,17.04,9.01,47.14,15.02,81.53,15.02,34.05,0,63.9-5.89,81.03-14.75Z"/>
          <path class="cls-7" d="m174.09,300.86c6.23.63,12.56,1.22,18.96,1.78,14.11,1.24,28.69,2.28,43.63,3.14,29.9,1.72,61.38,2.64,94.4,2.39,23.53-.18,46.26-.93,68.17-2.12,15.82-.86,31.19-1.96,46.11-3.25,7.12-.61,14.17-1.26,21.08-1.95,2.62-.07,14.6-.66,24.42-10.36.3-.29,2.56-2.64,4.93-6.41,2.68-4.27,5.5-10.38,5.77-17.7.01-.28.01-.51.02-.67,4.11-36.28,6.74-77.17,6.31-121.91-.36-37.22-2.77-71.63-6.31-102.8,0-9.7-3.93-18.49-10.29-24.84-10.06-10.06-22.5-10.29-24.84-10.29C421.41,2.25,372.72.01,320.81,0c-52.32-.01-101.38,2.23-146.72,5.89-9.7,0-18.49,3.93-24.84,10.29-8.1,8.1-9.84,18.93-10.29,24.84-2.71,32.3-4.44,67.01-4.67,103.88-.27,43.28,1.56,83.69,4.68,120.82,0,7.11,2.13,13.72,5.76,19.25,1.32,2.01,2.83,3.89,4.53,5.59,10.06,10.06,22.5,10.29,24.84,10.29Zm95.04-13.72c-.81-8.37-1.62-16.73-2.44-25.1,1.45.03,2.9.05,4.35.07.76,8.36,1.52,16.73,2.27,25.09-1.39-.02-2.79-.04-4.18-.07Zm6.27.1c-.72-8.36-1.45-16.73-2.18-25.09,1.45.02,2.9.04,4.35.06.68,8.36,1.35,16.72,2.01,25.09-1.39-.02-2.79-.04-4.18-.06Zm6.27.09c-.64-8.36-1.28-16.72-1.93-25.08,1.45.02,2.9.04,4.35.05.59,8.36,1.17,16.72,1.75,25.08-1.39-.02-2.79-.03-4.18-.05Zm6.27.07c-.55-8.36-1.11-16.72-1.67-25.08,1.45.02,2.9.03,4.35.04.5,8.36,1,16.72,1.5,25.08-1.39-.01-2.79-.03-4.18-.04Zm6.27.06c-.47-8.36-.94-16.72-1.41-25.07,1.45.01,2.9.02,4.35.04.42,8.36.83,16.71,1.24,25.07-1.39-.01-2.79-.02-4.18-.03Zm6.27.05c-.38-8.36-.77-16.71-1.16-25.07,1.45,0,2.9.02,4.35.03.33,8.36.66,16.71.99,25.07-1.39,0-2.79-.02-4.18-.02Zm6.27.03c-.3-8.36-.6-16.71-.9-25.07,1.45,0,2.9.01,4.35.02.25,8.35.49,16.71.73,25.06-1.39,0-2.79,0-4.18-.02Zm6.27.02c-.21-8.35-.43-16.71-.64-25.06,1.45,0,2.9,0,4.35,0,.16,8.35.32,16.71.47,25.06-1.39,0-2.79,0-4.18,0Zm6.27,0c-.13-8.35-.26-16.71-.39-25.06,1.45,0,2.9,0,4.35,0,.07,8.35.15,16.71.22,25.06-1.39,0-2.79,0-4.18,0Zm6.27,0c-.04-8.35-.09-16.71-.13-25.06,1.45,0,2.9,0,4.35-.01-.01,8.35-.03,16.71-.04,25.06-1.39,0-2.79,0-4.18.01Zm6.27-.02c.04-8.35.08-16.71.13-25.06,1.45,0,2.9-.01,4.35-.02-.1,8.35-.2,16.71-.3,25.06-1.39,0-2.79.01-4.18.02Zm6.27-.03c.13-8.35.25-16.71.38-25.06,1.45,0,2.9-.02,4.35-.03-.19,8.36-.37,16.71-.55,25.07-1.39.01-2.79.02-4.18.03Zm6.27-.04c.21-8.36.42-16.71.64-25.07,1.45-.01,2.9-.03,4.35-.04-.27,8.36-.54,16.71-.81,25.07-1.39.01-2.79.03-4.18.04Zm6.27-.06c.3-8.36.59-16.71.89-25.07,1.45-.01,2.9-.03,4.35-.05-.36,8.36-.71,16.72-1.07,25.07-1.39.02-2.79.03-4.18.05Zm6.27-.07c.38-8.36.76-16.72,1.15-25.07,1.45-.02,2.9-.04,4.35-.06-.44,8.36-.88,16.72-1.32,25.08-1.39.02-2.79.04-4.18.05Zm6.27-.08c.47-8.36.93-16.72,1.41-25.08,1.45-.02,2.9-.04,4.35-.07-.53,8.36-1.06,16.72-1.58,25.08-1.39.02-2.79.04-4.18.06Zm100.51-28.14c-1.78,8.43-3.55,16.85-5.3,25.27-20.56.94-41.12,1.68-61.69,2.2.92-8.37,1.84-16.75,2.78-25.12,21.41-.56,42.81-1.34,64.21-2.35Zm-68.65,2.46c-.87,8.37-1.74,16.74-2.6,25.12-1.39.03-2.79.07-4.18.1.8-8.37,1.62-16.74,2.43-25.11,1.45-.03,2.9-.07,4.35-.1Zm-6.53.15c-.79,8.37-1.57,16.74-2.35,25.11-1.39.03-2.79.06-4.18.09.72-8.37,1.45-16.73,2.18-25.1,1.45-.03,2.9-.06,4.35-.09Zm-6.53.14c-.7,8.37-1.4,16.73-2.09,25.1-1.39.03-2.79.05-4.18.08.63-8.36,1.27-16.73,1.92-25.09,1.45-.03,2.9-.06,4.35-.09Zm-6.53.13c-.62,8.36-1.23,16.73-1.83,25.09-1.39.02-2.79.05-4.18.07.55-8.36,1.1-16.72,1.66-25.09,1.45-.02,2.9-.05,4.35-.08Zm-110.96,0c.85,8.37,1.69,16.73,2.52,25.1-1.39-.02-2.79-.05-4.18-.08-.89-8.37-1.79-16.74-2.69-25.11,1.45.03,2.9.06,4.35.08Zm-6.53-.13c.93,8.37,1.86,16.74,2.78,25.11-1.39-.03-2.79-.06-4.18-.09-.97-8.37-1.96-16.74-2.95-25.12,1.45.03,2.9.06,4.35.09Zm-6.53-.14c1.02,8.37,2.03,16.75,3.04,25.12-1.39-.03-2.79-.06-4.18-.09-1.06-8.38-2.13-16.75-3.21-25.13,1.45.03,2.9.07,4.35.1Zm-69.06,22.69c-1.98-8.43-3.97-16.87-5.98-25.3,21.4,1.01,42.8,1.79,64.21,2.35,1.16,8.38,2.32,16.76,3.46,25.14-20.57-.52-41.13-1.25-61.69-2.19Z"/>
          <path class="cls-4" d="m244.1,286.62c-1.14-8.38-2.3-16.76-3.46-25.14-21.41-.56-42.81-1.34-64.21-2.35,2.01,8.44,4,16.87,5.98,25.3,20.56.94,41.12,1.67,61.69,2.19Z"/>
          <path class="cls-4" d="m396.72,286.6c20.57-.52,41.13-1.26,61.69-2.2,1.75-8.42,3.52-16.85,5.3-25.27-21.4,1.01-42.8,1.79-64.21,2.35-.93,8.37-1.86,16.75-2.78,25.12Z"/>
          <path class="cls-4" d="m250.33,286.77c1.39.03,2.79.06,4.18.09-1-8.37-2.01-16.75-3.04-25.12-1.45-.03-2.9-.07-4.35-.1,1.08,8.38,2.15,16.75,3.21,25.13Z"/>
          <path class="cls-4" d="m256.6,286.91c1.39.03,2.79.06,4.18.09-.92-8.37-1.85-16.74-2.78-25.11-1.45-.03-2.9-.06-4.35-.09.99,8.37,1.98,16.75,2.95,25.12Z"/>
          <path class="cls-4" d="m262.87,287.03c1.39.03,2.79.05,4.18.08-.83-8.37-1.67-16.73-2.52-25.1-1.45-.03-2.9-.05-4.35-.08.91,8.37,1.8,16.74,2.69,25.11Z"/>
          <path class="cls-4" d="m271.05,262.12c-1.45-.02-2.9-.05-4.35-.07.82,8.37,1.63,16.73,2.44,25.1,1.39.02,2.79.05,4.18.07-.75-8.36-1.5-16.73-2.27-25.09Z"/>
          <path class="cls-4" d="m277.58,262.22c-1.45-.02-2.9-.04-4.35-.06.73,8.36,1.46,16.73,2.18,25.09,1.39.02,2.79.04,4.18.06-.66-8.36-1.33-16.72-2.01-25.09Z"/>
          <path class="cls-4" d="m284.1,262.3c-1.45-.02-2.9-.03-4.35-.05.65,8.36,1.29,16.72,1.93,25.08,1.39.02,2.79.03,4.18.05-.58-8.36-1.16-16.72-1.75-25.08Z"/>
          <path class="cls-4" d="m290.63,262.37c-1.45-.01-2.9-.03-4.35-.04.56,8.36,1.12,16.72,1.67,25.08,1.39.01,2.79.03,4.18.04-.49-8.36-.99-16.72-1.5-25.08Z"/>
          <path class="cls-4" d="m297.16,262.43c-1.45-.01-2.9-.02-4.35-.04.48,8.36.95,16.72,1.41,25.07,1.39.01,2.79.02,4.18.03-.41-8.36-.82-16.71-1.24-25.07Z"/>
          <path class="cls-4" d="m303.69,262.47c-1.45,0-2.9-.02-4.35-.03.39,8.36.77,16.71,1.16,25.07,1.39,0,2.79.02,4.18.02-.33-8.36-.65-16.71-.99-25.07Z"/>
          <path class="cls-4" d="m310.21,262.5c-1.45,0-2.9-.01-4.35-.02.3,8.36.6,16.71.9,25.07,1.39,0,2.79.01,4.18.02-.24-8.35-.48-16.71-.73-25.06Z"/>
          <path class="cls-4" d="m316.74,262.51c-1.45,0-2.9,0-4.35,0,.22,8.35.43,16.71.64,25.06,1.39,0,2.79,0,4.18,0-.16-8.35-.31-16.71-.47-25.06Z"/>
          <path class="cls-4" d="m323.27,262.51c-1.45,0-2.9,0-4.35,0,.13,8.35.26,16.71.39,25.06,1.39,0,2.79,0,4.18,0-.07-8.35-.14-16.71-.22-25.06Z"/>
          <path class="cls-4" d="m329.79,262.5c-1.45,0-2.9,0-4.35.01.04,8.35.09,16.71.13,25.06,1.39,0,2.79,0,4.18-.01.01-8.35.03-16.71.04-25.06Z"/>
          <path class="cls-4" d="m336.32,262.47c-1.45,0-2.9.01-4.35.02-.04,8.35-.08,16.71-.13,25.06,1.39,0,2.79-.01,4.18-.02.1-8.35.2-16.71.3-25.06Z"/>
          <path class="cls-4" d="m342.85,262.43c-1.45.01-2.9.02-4.35.03-.13,8.35-.26,16.71-.38,25.06,1.39,0,2.79-.02,4.18-.03.18-8.36.37-16.71.55-25.07Z"/>
          <path class="cls-4" d="m349.38,262.37c-1.45.01-2.9.03-4.35.04-.21,8.36-.43,16.71-.64,25.07,1.39-.01,2.79-.02,4.18-.04.27-8.36.54-16.71.81-25.07Z"/>
          <path class="cls-4" d="m355.9,262.3c-1.45.02-2.9.03-4.35.05-.3,8.36-.6,16.71-.89,25.07,1.39-.01,2.79-.03,4.18-.05.35-8.36.71-16.71,1.07-25.07Z"/>
          <path class="cls-4" d="m362.43,262.22c-1.45.02-2.9.04-4.35.06-.39,8.36-.77,16.72-1.15,25.07,1.39-.02,2.79-.04,4.18-.05.44-8.36.88-16.72,1.32-25.08Z"/>
          <path class="cls-4" d="m368.96,262.12c-1.45.02-2.9.05-4.35.07-.47,8.36-.94,16.72-1.41,25.08,1.39-.02,2.79-.04,4.18-.06.52-8.36,1.05-16.72,1.58-25.08Z"/>
          <path class="cls-4" d="m369.47,287.17c1.39-.02,2.79-.05,4.18-.07.61-8.36,1.22-16.73,1.83-25.09-1.45.03-2.9.05-4.35.08-.56,8.36-1.11,16.72-1.66,25.09Z"/>
          <path class="cls-4" d="m375.74,287.06c1.39-.03,2.79-.05,4.18-.08.69-8.37,1.39-16.73,2.09-25.1-1.45.03-2.9.06-4.35.09-.64,8.36-1.28,16.73-1.92,25.09Z"/>
          <path class="cls-4" d="m382.01,286.94c1.39-.03,2.79-.06,4.18-.09.78-8.37,1.56-16.74,2.35-25.11-1.45.03-2.9.06-4.35.09-.73,8.37-1.46,16.73-2.18,25.1Z"/>
          <path class="cls-4" d="m388.28,286.8c1.39-.03,2.79-.06,4.18-.1.86-8.37,1.73-16.74,2.6-25.12-1.45.04-2.9.07-4.35.1-.82,8.37-1.63,16.74-2.43,25.11Z"/>
        </g>
        <g>
          <path class="cls-2" d="m427.8,240.6c-30.24,2.78-63.29,4.63-98.78,4.87-41.61.28-79.99-1.69-114.57-4.87-1.71,0-10.79-.16-18.13-6.84-4.64-4.23-7.51-10.07-7.51-16.52-2.27-24.69-3.61-51.57-3.41-80.35.17-24.51,1.43-47.6,3.41-69.08.33-3.93,1.6-11.14,7.51-16.52,4.64-4.23,11.05-6.84,18.13-6.84,33.09-2.43,68.89-3.93,107.08-3.92,37.88,0,73.42,1.5,106.28,3.91,1.71,0,10.79.16,18.13,6.84,4.64,4.23,7.51,10.07,7.51,16.52,2.58,20.72,4.34,43.61,4.6,68.36.31,29.75-1.6,56.94-4.6,81.07,0,.11,0,.26-.01.45-.36,9.16-7.34,15.62-7.8,16.03-7.17,6.45-15.91,6.84-17.82,6.89Z"/>
          <g class="cls-1">
            <rect class="cls-8" x="241.24" y="-30.62" width="67.32" height="392.55" transform="translate(149.81 -129.92) rotate(35.99)"/>
            <rect class="cls-8" x="344.37" y="-18.02" width="27.73" height="392.55" transform="translate(173.12 -176.48) rotate(35.99)"/>
          </g>
        </g>
      </g>
    </g>
  </g>
</svg>