<?xml version="1.0" encoding="UTF-8"?>
<svg id="Layer_2" data-name="Layer 2" xmlns="http://www.w3.org/2000/svg" xmlns:xlink="http://www.w3.org/1999/xlink" viewBox="0 0 298.48 244.21">
  <defs>
    <style>
      .cls-1 {
        clip-path: url(#clippath);
      }

      .cls-2, .cls-3 {
        fill: #71736b;
      }

      .cls-4 {
        fill: #565342;
      }

      .cls-4, .cls-5, .cls-3, .cls-6, .cls-7, .cls-8, .cls-9, .cls-10, .cls-11, .cls-12, .cls-13 {
        stroke-width: 0px;
      }

      .cls-5 {
        fill: #72632c;
      }

      .cls-6 {
        fill: #c4a988;
      }

      .cls-7 {
        fill: #bfb7a7;
      }

      .cls-8 {
        fill: #d7d0c5;
      }

      .cls-9 {
        fill: #a88751;
      }

      .cls-10 {
        fill: #cec9b1;
      }

      .cls-11 {
        fill: #c1b2a6;
      }

      .cls-12 {
        fill: #978e78;
      }

      .cls-13 {
        fill: #fdf5ea;
      }
    </style>
    <clipPath id="clippath">
      <path class="cls-3" d="m202.4,113.83c-14.31,1.32-29.94,2.19-46.74,2.3-19.69.13-37.85-.8-54.21-2.3-.81,0-5.11-.07-8.58-3.24-2.2-2-3.55-4.76-3.55-7.82-1.08-11.68-1.71-24.4-1.62-38.01.08-11.6.68-22.52,1.61-32.68.16-1.86.76-5.27,3.55-7.82,2.2-2,5.23-3.24,8.58-3.24,15.66-1.15,32.59-1.86,50.66-1.85,17.92,0,34.73.71,50.28,1.85.81,0,5.11.07,8.58,3.24,2.2,2,3.55,4.76,3.55,7.82,1.22,9.81,2.06,20.63,2.18,32.34.15,14.07-.76,26.94-2.18,38.35,0,.05,0,.12,0,.21-.17,4.33-3.47,7.39-3.69,7.59-3.39,3.05-7.53,3.24-8.43,3.26Z"/>
    </clipPath>
  </defs>
  <g id="Layer_1-2" data-name="Layer 1">
    <g>
      <ellipse class="cls-13" cx="149.24" cy="208.44" rx="149.24" ry="35.78"/>
      <g>
        <g>
          <path class="cls-10" d="m220.68,142.34c-3.27.33-6.6.63-9.97.92,5.42,3.11,8.52,6.68,8.52,10.48,0,7.94-13.48,14.88-33.57,18.65,38.29-.08,69.7-.15,69.7-.15l-10.67-32.86c-.97-2.98-3.75-5-6.89-4.99h-3.23c-1.12,1.79-2.19,2.9-2.33,3.04-4.65,4.59-10.31,4.87-11.56,4.9Z"/>
          <path class="cls-10" d="m82.68,153.75c0-3.84,3.15-7.44,8.66-10.56-3.03-.27-6.03-.55-8.97-.84-1.11,0-7-.11-11.75-4.87-.8-.8-1.52-1.69-2.14-2.65h-4.52c-3.35.02-6.25,2.33-7.01,5.59l-7.56,32.27c.34,0,30.51-.06,67.65-.14-20.52-3.74-34.35-10.75-34.35-18.8Z"/>
          <path class="cls-6" d="m87.83,193.89c0-5.95,4.87-10.82,10.82-10.82h144.43c5.95,0,10.82,4.87,10.82,10.81v6.86c5.7,0,8.97,0,8.97,0l-7.5-28.5s-31.41.07-69.7.15c-10.17,1.91-22.03,3.01-34.71,3.01-12.35,0-23.93-1.05-33.93-2.87-37.14.08-67.32.14-67.65.14l-8.14,28.07c-.06-.06,19.31-.08,46.6-.09v-6.78Z"/>
          <path class="cls-9" d="m253.9,200.75v4.13c0,5.95-4.87,10.82-10.82,10.82H98.65c-5.95,0-10.82-4.86-10.82-10.81v-4.21c-27.3,0-46.66.03-46.6.09l6.5,19.89h207.7s7.42-19.89,7.42-19.89c0,0-3.27,0-8.97,0Z"/>
          <path class="cls-11" d="m243.08,183.07H98.65c-5.95,0-10.82,4.87-10.82,10.82v6.78s0,4.21,0,4.21c0,5.95,4.87,10.82,10.82,10.82h144.43c5.95,0,10.82-4.87,10.82-10.82v-4.13s0-6.86,0-6.86c0-5.95-4.87-10.82-10.82-10.82Zm6.17,20.05c0,3.93-3.21,7.14-7.14,7.14H99.29c-3.93,0-7.14-3.21-7.14-7.14v-8.81c0-3.93,3.21-7.14,7.14-7.14h142.81c3.93,0,7.14,3.21,7.14,7.14v8.81Z"/>
          <rect class="cls-4" x="92.15" y="187.17" width="157.09" height="23.09" rx="7.14" ry="7.14"/>
          <path class="cls-12" d="m219.23,153.75c0-3.8-3.1-7.37-8.52-10.48-7.06.61-14.33,1.13-21.82,1.54-8.1,4.19-22.23,6.98-38.34,6.98-16.27,0-30.52-2.84-38.58-7.11-7.07-.41-13.97-.9-20.64-1.49-5.51,3.12-8.66,6.72-8.66,10.56,0,8.04,13.83,15.06,34.35,18.8,10,1.82,21.57,2.87,33.93,2.87,12.68,0,24.54-1.1,34.71-3.01,20.09-3.77,33.57-10.71,33.57-18.65Z"/>
          <path class="cls-5" d="m188.89,144.8c-10.36.56-21.12.92-32.25,1-15.62.12-30.52-.32-44.66-1.13,8.06,4.26,22.3,7.11,38.58,7.11,16.11,0,30.23-2.78,38.34-6.98Z"/>
          <path class="cls-7" d="m82.37,142.34c2.95.3,5.94.58,8.97.84,6.68.59,13.57,1.08,20.64,1.49,14.14.81,29.04,1.25,44.66,1.13,11.13-.08,21.89-.44,32.25-1,7.49-.41,14.76-.93,21.82-1.54,3.37-.29,6.71-.59,9.97-.92,1.24-.03,6.91-.31,11.56-4.9.14-.14,1.21-1.25,2.33-3.03,1.27-2.02,2.6-4.91,2.73-8.38,0-.13,0-.24,0-.32,1.95-17.17,3.19-36.51,2.98-57.68-.17-17.61-1.31-33.89-2.99-48.63,0-4.59-1.86-8.75-4.87-11.75-4.76-4.76-10.65-4.87-11.75-4.87C199.38,1.07,176.34,0,151.78,0c-24.76,0-47.96,1.06-69.42,2.79-4.59,0-8.75,1.86-11.75,4.87-3.83,3.83-4.66,8.96-4.87,11.75-1.28,15.28-2.1,31.71-2.21,49.15-.13,20.48.74,39.6,2.21,57.16,0,3.37,1.01,6.49,2.73,9.11.63.95,1.34,1.84,2.14,2.65,4.76,4.76,10.65,4.87,11.75,4.87Zm44.97-6.49c-.38-3.96-.77-7.92-1.15-11.87.69.01,1.37.02,2.06.03.36,3.96.72,7.92,1.07,11.87-.66-.01-1.32-.02-1.98-.03Zm2.97.05c-.34-3.96-.69-7.91-1.03-11.87.69.01,1.37.02,2.06.03.32,3.96.64,7.91.95,11.87-.66,0-1.32-.02-1.98-.03Zm2.97.04c-.3-3.96-.6-7.91-.91-11.87.69,0,1.37.02,2.06.03.28,3.96.56,7.91.83,11.87-.66,0-1.32-.02-1.98-.02Zm2.97.03c-.26-3.95-.52-7.91-.79-11.87.69,0,1.37.01,2.06.02.24,3.95.47,7.91.71,11.86-.66,0-1.32-.01-1.98-.02Zm2.97.03c-.22-3.95-.44-7.91-.67-11.86.69,0,1.37.01,2.06.02.2,3.95.39,7.91.59,11.86-.66,0-1.32,0-1.98-.02Zm2.97.02c-.18-3.95-.36-7.91-.55-11.86.69,0,1.37,0,2.06.01.16,3.95.31,7.91.47,11.86-.66,0-1.32,0-1.98-.01Zm2.97.02c-.14-3.95-.28-7.91-.43-11.86.69,0,1.37,0,2.06,0,.12,3.95.23,7.91.34,11.86-.66,0-1.32,0-1.98,0Zm2.97,0c-.1-3.95-.2-7.91-.3-11.86.69,0,1.37,0,2.06,0,.08,3.95.15,7.91.22,11.86-.66,0-1.32,0-1.98,0Zm2.97,0c-.06-3.95-.12-7.91-.18-11.86.69,0,1.37,0,2.06,0,.03,3.95.07,7.9.1,11.86-.66,0-1.32,0-1.98,0Zm2.97,0c-.02-3.95-.04-7.9-.06-11.86.69,0,1.37,0,2.06,0,0,3.95-.01,7.91-.02,11.86-.66,0-1.32,0-1.98,0Zm2.97,0c.02-3.95.04-7.91.06-11.86.69,0,1.37,0,2.06,0-.05,3.95-.09,7.91-.14,11.86-.66,0-1.32,0-1.98,0Zm2.97-.01c.06-3.95.12-7.91.18-11.86.69,0,1.37,0,2.06-.01-.09,3.95-.17,7.91-.26,11.86-.66,0-1.32,0-1.98.01Zm2.97-.02c.1-3.95.2-7.91.3-11.86.69,0,1.37-.01,2.06-.02-.13,3.95-.26,7.91-.38,11.86-.66,0-1.32.01-1.98.02Zm2.97-.03c.14-3.95.28-7.91.42-11.86.69,0,1.37-.01,2.06-.02-.17,3.95-.34,7.91-.5,11.86-.66,0-1.32.01-1.98.02Zm2.97-.03c.18-3.95.36-7.91.54-11.86.69,0,1.37-.02,2.06-.03-.21,3.95-.42,7.91-.63,11.86-.66,0-1.32.02-1.98.03Zm2.97-.04c.22-3.95.44-7.91.67-11.87.69-.01,1.37-.02,2.06-.03-.25,3.96-.5,7.91-.75,11.87-.66.01-1.32.02-1.98.03Zm47.55-13.31c-.84,3.99-1.68,7.97-2.51,11.96-9.73.45-19.46.79-29.19,1.04.43-3.96.87-7.92,1.31-11.89,10.13-.26,20.26-.63,30.38-1.11Zm-32.48,1.17c-.41,3.96-.82,7.92-1.23,11.88-.66.02-1.32.03-1.98.05.38-3.96.76-7.92,1.15-11.88.69-.02,1.37-.03,2.06-.05Zm-3.09.07c-.37,3.96-.74,7.92-1.11,11.88-.66.01-1.32.03-1.98.04.34-3.96.68-7.92,1.03-11.88.69-.01,1.37-.03,2.06-.04Zm-3.09.07c-.33,3.96-.66,7.92-.99,11.87-.66.01-1.32.03-1.98.04.3-3.96.6-7.91.91-11.87.69-.01,1.37-.03,2.06-.04Zm-3.09.06c-.29,3.96-.58,7.91-.87,11.87-.66.01-1.32.02-1.98.03.26-3.96.52-7.91.79-11.87.69-.01,1.37-.02,2.06-.04Zm-52.5,0c.4,3.96.8,7.92,1.19,11.88-.66-.01-1.32-.02-1.98-.04-.42-3.96-.85-7.92-1.27-11.88.69.01,1.37.03,2.06.04Zm-3.09-.06c.44,3.96.88,7.92,1.32,11.88-.66-.01-1.32-.03-1.98-.04-.46-3.96-.93-7.92-1.4-11.88.69.01,1.37.03,2.06.04Zm-3.09-.07c.48,3.96.96,7.92,1.44,11.89-.66-.01-1.32-.03-1.98-.04-.5-3.96-1.01-7.93-1.52-11.89.69.02,1.37.03,2.06.05Zm-32.68,10.74c-.94-3.99-1.88-7.98-2.83-11.97,10.12.48,20.25.85,30.38,1.11.55,3.97,1.1,7.93,1.64,11.89-9.73-.25-19.46-.59-29.19-1.03Z"/>
          <path class="cls-4" d="m115.49,135.61c-.54-3.96-1.09-7.93-1.64-11.89-10.13-.26-20.26-.63-30.38-1.11.95,3.99,1.89,7.98,2.83,11.97,9.73.44,19.46.79,29.19,1.03Z"/>
          <path class="cls-4" d="m187.7,135.6c9.73-.25,19.46-.6,29.19-1.04.83-3.98,1.66-7.97,2.51-11.96-10.12.48-20.25.85-30.38,1.11-.44,3.96-.88,7.92-1.31,11.89Z"/>
          <path class="cls-4" d="m118.43,135.68c.66.02,1.32.03,1.98.04-.47-3.96-.95-7.92-1.44-11.89-.69-.02-1.37-.03-2.06-.05.51,3.96,1.02,7.93,1.52,11.89Z"/>
          <path class="cls-4" d="m121.4,135.74c.66.01,1.32.03,1.98.04-.43-3.96-.87-7.92-1.32-11.88-.69-.01-1.37-.03-2.06-.04.47,3.96.93,7.92,1.4,11.88Z"/>
          <path class="cls-4" d="m124.37,135.8c.66.01,1.32.02,1.98.04-.39-3.96-.79-7.92-1.19-11.88-.69-.01-1.37-.03-2.06-.04.43,3.96.85,7.92,1.27,11.88Z"/>
          <path class="cls-4" d="m128.24,124.01c-.69-.01-1.37-.02-2.06-.03.39,3.96.77,7.92,1.15,11.87.66.01,1.32.02,1.98.03-.35-3.96-.71-7.91-1.07-11.87Z"/>
          <path class="cls-4" d="m131.33,124.06c-.69,0-1.37-.02-2.06-.03.35,3.96.69,7.91,1.03,11.87.66,0,1.32.02,1.98.03-.31-3.96-.63-7.91-.95-11.87Z"/>
          <path class="cls-4" d="m134.42,124.1c-.69,0-1.37-.02-2.06-.03.31,3.96.61,7.91.91,11.87.66,0,1.32.02,1.98.02-.27-3.96-.55-7.91-.83-11.87Z"/>
          <path class="cls-4" d="m137.5,124.13c-.69,0-1.37-.01-2.06-.02.27,3.96.53,7.91.79,11.87.66,0,1.32.01,1.98.02-.23-3.95-.47-7.91-.71-11.86Z"/>
          <path class="cls-4" d="m140.59,124.16c-.69,0-1.37-.01-2.06-.02.22,3.95.45,7.91.67,11.86.66,0,1.32.01,1.98.02-.19-3.95-.39-7.91-.59-11.86Z"/>
          <path class="cls-4" d="m143.68,124.18c-.69,0-1.37,0-2.06-.01.18,3.95.37,7.91.55,11.86.66,0,1.32,0,1.98.01-.15-3.95-.31-7.91-.47-11.86Z"/>
          <path class="cls-4" d="m146.77,124.19c-.69,0-1.37,0-2.06,0,.14,3.95.29,7.91.43,11.86.66,0,1.32,0,1.98,0-.11-3.95-.23-7.91-.34-11.86Z"/>
          <path class="cls-4" d="m149.86,124.2c-.69,0-1.37,0-2.06,0,.1,3.95.2,7.91.3,11.86.66,0,1.32,0,1.98,0-.07-3.95-.15-7.91-.22-11.86Z"/>
          <path class="cls-4" d="m152.94,124.2c-.69,0-1.37,0-2.06,0,.06,3.95.12,7.91.18,11.86.66,0,1.32,0,1.98,0-.03-3.95-.07-7.9-.1-11.86Z"/>
          <path class="cls-4" d="m156.03,124.19c-.69,0-1.37,0-2.06,0,.02,3.95.04,7.9.06,11.86.66,0,1.32,0,1.98,0,0-3.95.01-7.9.02-11.86Z"/>
          <path class="cls-4" d="m159.12,124.18c-.69,0-1.37,0-2.06,0-.02,3.95-.04,7.91-.06,11.86.66,0,1.32,0,1.98,0,.05-3.95.09-7.91.14-11.86Z"/>
          <path class="cls-4" d="m162.21,124.16c-.69,0-1.37,0-2.06.01-.06,3.95-.12,7.91-.18,11.86.66,0,1.32,0,1.98-.01.09-3.95.17-7.91.26-11.86Z"/>
          <path class="cls-4" d="m165.3,124.13c-.69,0-1.37.01-2.06.02-.1,3.95-.2,7.91-.3,11.86.66,0,1.32-.01,1.98-.02.13-3.95.25-7.91.38-11.86Z"/>
          <path class="cls-4" d="m168.38,124.1c-.69,0-1.37.02-2.06.02-.14,3.95-.28,7.91-.42,11.86.66,0,1.32-.01,1.98-.02.17-3.95.33-7.91.5-11.86Z"/>
          <path class="cls-4" d="m171.47,124.06c-.69,0-1.37.02-2.06.03-.18,3.95-.36,7.91-.54,11.86.66,0,1.32-.02,1.98-.03.21-3.95.42-7.91.63-11.86Z"/>
          <path class="cls-4" d="m174.56,124.01c-.69.01-1.37.02-2.06.03-.22,3.96-.45,7.91-.67,11.87.66,0,1.32-.02,1.98-.03.25-3.96.5-7.91.75-11.87Z"/>
          <path class="cls-4" d="m174.8,135.87c.66-.01,1.32-.02,1.98-.03.29-3.96.58-7.91.87-11.87-.69.01-1.37.02-2.06.04-.26,3.96-.53,7.91-.79,11.87Z"/>
          <path class="cls-4" d="m177.77,135.81c.66-.01,1.32-.02,1.98-.04.33-3.96.66-7.92.99-11.87-.69.01-1.37.03-2.06.04-.3,3.96-.61,7.91-.91,11.87Z"/>
          <path class="cls-4" d="m180.74,135.76c.66-.01,1.32-.03,1.98-.04.37-3.96.74-7.92,1.11-11.88-.69.02-1.37.03-2.06.04-.35,3.96-.69,7.92-1.03,11.88Z"/>
          <path class="cls-4" d="m183.7,135.69c.66-.01,1.32-.03,1.98-.05.41-3.96.82-7.92,1.23-11.88-.69.02-1.37.03-2.06.05-.39,3.96-.77,7.92-1.15,11.88Z"/>
        </g>
        <g>
          <path class="cls-2" d="m202.4,113.83c-14.31,1.32-29.94,2.19-46.74,2.3-19.69.13-37.85-.8-54.21-2.3-.81,0-5.11-.07-8.58-3.24-2.2-2-3.55-4.76-3.55-7.82-1.08-11.68-1.71-24.4-1.62-38.01.08-11.6.68-22.52,1.61-32.68.16-1.86.76-5.27,3.55-7.82,2.2-2,5.23-3.24,8.58-3.24,15.66-1.15,32.59-1.86,50.66-1.85,17.92,0,34.73.71,50.28,1.85.81,0,5.11.07,8.58,3.24,2.2,2,3.55,4.76,3.55,7.82,1.22,9.81,2.06,20.63,2.18,32.34.15,14.07-.76,26.94-2.18,38.35,0,.05,0,.12,0,.21-.17,4.33-3.47,7.39-3.69,7.59-3.39,3.05-7.53,3.24-8.43,3.26Z"/>
          <g class="cls-1">
            <rect class="cls-8" x="114.13" y="-14.49" width="31.85" height="185.73" transform="translate(70.88 -61.47) rotate(35.99)"/>
            <rect class="cls-8" x="162.93" y="-8.53" width="13.12" height="185.73" transform="translate(81.91 -83.5) rotate(35.99)"/>
          </g>
        </g>
      </g>
    </g>
  </g>
</svg>