<?xml version="1.0" encoding="UTF-8"?>
<svg id="Layer_2" data-name="Layer 2" xmlns="http://www.w3.org/2000/svg" viewBox="0 0 210.37 57.31">
  <defs>
    <style>
      .cls-1 {
        fill: #21364e;
      }

      .cls-1, .cls-2 {
        stroke-width: 0px;
      }

      .cls-2 {
        fill: #ee3724;
      }
    </style>
  </defs>
  <g id="Layer_1-2" data-name="Layer 1">
    <g>
      <g>
        <path class="cls-1" d="m68.82,33.73v-11.12h3.84v7.56h2.76v3.55h-6.6Z"/>
        <path class="cls-1" d="m83.32,33.73l-.24-.92h-1.96l-.21.92h-3.77l3.41-11.12h3.85l3.41,11.12h-4.5Zm-1.23-5.31l-.47,2.32h.96l-.49-2.32Z"/>
        <path class="cls-1" d="m94.93,22.61h3.85v6.55c0,1.56-.39,2.74-1.18,3.55s-1.93,1.22-3.45,1.22-2.72-.4-3.54-1.21c-.82-.81-1.23-1.99-1.23-3.54v-6.57h3.85v6.95c0,.55.29.82.87.82.29,0,.51-.07.63-.21.13-.14.19-.34.19-.62v-6.95Z"/>
        <path class="cls-1" d="m107.43,33.73l-1.99-3.65v3.65h-3.84v-11.12h5.23c.62,0,1.18.07,1.68.21.5.14.92.36,1.27.65.35.29.62.66.81,1.11.19.45.28.99.28,1.61,0,.79-.13,1.45-.38,1.97-.25.52-.64.96-1.17,1.32l2.38,4.25h-4.28Zm-1.06-6.25c.41,0,.62-.22.62-.66s-.21-.65-.62-.65h-.93v1.31h.93Z"/>
        <path class="cls-1" d="m116.67,33.73c-.53,0-1.01-.07-1.45-.21s-.82-.35-1.14-.63c-.32-.28-.56-.64-.74-1.07-.18-.43-.27-.93-.27-1.52,0-.25.03-.51.08-.76.05-.25.13-.49.24-.71s.25-.42.43-.6c.17-.18.38-.33.62-.44-.4-.21-.69-.53-.87-.96-.18-.43-.27-.88-.27-1.37,0-.41.06-.79.19-1.15.13-.35.32-.66.58-.91.26-.25.58-.45.98-.59.4-.14.86-.21,1.38-.21h5.01v3.52h-4.11c-.32,0-.47.16-.47.49s.16.47.47.47h3.63v1.91h-3.54c-.41,0-.62.19-.62.58,0,.37.21.55.62.55h4.03v3.58h-4.79Z"/>
        <path class="cls-1" d="m130.48,33.73l-2.81-4.33v4.33h-3.52v-11.12h3.7l2.35,3.68v-3.68h3.55v11.12h-3.27Z"/>
        <path class="cls-1" d="m136.65,33.73v-11.12h3.85v11.12h-3.85Z"/>
        <path class="cls-1" d="m143.23,33.73v-3.55h4.22c.48,0,.73-.21.73-.63s-.24-.63-.73-.63h-.73c-.63,0-1.17-.08-1.63-.23-.45-.15-.82-.37-1.11-.64-.29-.27-.5-.6-.64-.98s-.21-.79-.21-1.25c0-.96.29-1.73.87-2.32.58-.59,1.43-.88,2.54-.88h5.45v3.55h-3.87c-.45,0-.68.2-.68.6,0,.43.23.65.68.65h1.47c.6,0,1.11.08,1.52.25.41.17.74.39.99.67.25.28.43.6.54.97.11.37.17.75.17,1.15,0,.45-.07.88-.21,1.27-.14.4-.35.74-.66,1.04-.3.29-.69.53-1.17.7-.48.17-1.06.26-1.73.26h-5.81Z"/>
        <path class="cls-1" d="m155.22,33.73v-11.12h3.84v7.56h2.76v3.55h-6.6Z"/>
        <path class="cls-1" d="m169.09,33.94c-.84,0-1.59-.13-2.26-.39-.66-.26-1.23-.64-1.7-1.14-.47-.5-.83-1.1-1.07-1.81-.25-.71-.37-1.52-.37-2.42s.12-1.67.37-2.38c.25-.71.6-1.32,1.07-1.82.47-.5,1.03-.88,1.7-1.15.66-.27,1.42-.4,2.26-.4s1.58.13,2.24.4,1.23.65,1.69,1.15c.46.5.82,1.11,1.07,1.82s.37,1.5.37,2.38-.12,1.71-.37,2.42-.6,1.31-1.07,1.81c-.46.49-1.03.87-1.69,1.14s-1.41.39-2.24.39Zm0-3.57c.45,0,.82-.17,1.11-.51.29-.34.43-.9.43-1.68s-.13-1.36-.39-1.7c-.26-.34-.65-.51-1.16-.51s-.92.17-1.18.51c-.26.34-.39.91-.39,1.7s.14,1.34.43,1.68c.29.34.67.51,1.13.51Z"/>
        <path class="cls-1" d="m182.67,33.73l-1.99-3.65v3.65h-3.84v-11.12h5.23c.62,0,1.18.07,1.68.21.5.14.92.36,1.27.65.35.29.62.66.8,1.11.19.45.29.99.29,1.61,0,.79-.13,1.45-.38,1.97-.25.52-.64.96-1.17,1.32l2.38,4.25h-4.28Zm-1.06-6.25c.41,0,.62-.22.62-.66s-.21-.65-.62-.65h-.93v1.31h.93Z"/>
        <path class="cls-1" d="m191.91,33.73c-.53,0-1.01-.07-1.45-.21s-.82-.35-1.14-.63c-.32-.28-.56-.64-.74-1.07-.18-.43-.27-.93-.27-1.52,0-.25.03-.51.08-.76.05-.25.13-.49.25-.71s.25-.42.43-.6c.17-.18.38-.33.62-.44-.4-.21-.69-.53-.87-.96-.18-.43-.27-.88-.27-1.37,0-.41.06-.79.19-1.15.13-.35.32-.66.58-.91.26-.25.58-.45.98-.59.39-.14.86-.21,1.38-.21h5.01v3.52h-4.11c-.32,0-.47.16-.47.49s.16.47.47.47h3.63v1.91h-3.54c-.41,0-.62.19-.62.58,0,.37.21.55.62.55h4.03v3.58h-4.78Z"/>
        <path class="cls-1" d="m207.11,33.73v-3.96l-1.77,3.96h-.95l-1.77-3.95v3.95h-3.25v-11.12h4.09l1.53,3.49,1.5-3.49h3.87v11.12h-3.25Z"/>
      </g>
      <g>
        <path class="cls-1" d="m71.25,37.27c.99,0,1.64.45,2.08,1.04l-.64.37c-.3-.4-.83-.71-1.44-.71-1.1,0-1.92.84-1.92,2.02s.82,2.03,1.92,2.03c.58,0,1.08-.28,1.33-.52v-.95h-1.69v-.69h2.48v1.93c-.5.56-1.23.93-2.12.93-1.51,0-2.73-1.09-2.73-2.73s1.22-2.72,2.73-2.72Z"/>
        <path class="cls-1" d="m77.74,40.59h-.99v2.03h-.79v-5.26h2.22c1,0,1.69.65,1.69,1.62s-.64,1.45-1.31,1.54l1.35,2.11h-.92l-1.25-2.03Zm.34-2.54h-1.33v1.85h1.33c.57,0,.98-.37.98-.92s-.41-.92-.98-.92Z"/>
        <path class="cls-1" d="m85.76,41.53h-2.58l-.43,1.09h-.87l2.09-5.26h.99l2.09,5.26h-.87l-.43-1.09Zm-2.35-.7h2.12l-1.07-2.78-1.06,2.78Z"/>
        <path class="cls-1" d="m89.26,37.35h2.22c1.08,0,1.68.74,1.68,1.62s-.61,1.62-1.68,1.62h-1.43v2.03h-.79v-5.26Zm2.11.69h-1.33v1.85h1.33c.57,0,.97-.37.97-.92s-.4-.92-.97-.92Z"/>
        <path class="cls-1" d="m99.26,40.27h-2.91v2.35h-.79v-5.26h.79v2.21h2.91v-2.21h.79v5.26h-.79v-2.35Z"/>
        <path class="cls-1" d="m102.8,37.35h.79v5.26h-.79v-5.26Z"/>
        <path class="cls-1" d="m106.12,39.99c0-1.62,1.2-2.72,2.7-2.72,1.03,0,1.68.5,2.09,1.11l-.67.36c-.28-.44-.8-.77-1.42-.77-1.06,0-1.89.84-1.89,2.02s.82,2.02,1.89,2.02c.62,0,1.14-.32,1.42-.77l.67.36c-.42.62-1.06,1.11-2.09,1.11-1.5,0-2.7-1.1-2.7-2.72Z"/>
        <path class="cls-1" d="m116.9,37.35h1.88c1.64,0,2.73,1.12,2.73,2.63s-1.09,2.63-2.73,2.63h-1.88v-5.26Zm1.88,4.57c1.21,0,1.92-.87,1.92-1.93s-.68-1.94-1.92-1.94h-1.09v3.87h1.09Z"/>
        <path class="cls-1" d="m124.05,37.35h3.53v.69h-2.75v1.54h2.69v.69h-2.69v1.64h2.75v.69h-3.53v-5.26Z"/>
        <path class="cls-1" d="m130.28,41.27c.36.39.92.74,1.66.74.85,0,1.15-.43,1.15-.81,0-.55-.6-.71-1.27-.88-.84-.22-1.82-.46-1.82-1.54,0-.87.77-1.5,1.86-1.5.81,0,1.45.26,1.92.73l-.46.58c-.4-.43-.95-.62-1.52-.62s-.99.3-.99.74c0,.47.57.62,1.22.79.86.23,1.86.5,1.86,1.62,0,.82-.57,1.59-1.99,1.59-.94,0-1.62-.34-2.07-.84l.45-.61Z"/>
        <path class="cls-1" d="m136.39,37.35h.79v5.26h-.79v-5.26Z"/>
        <path class="cls-1" d="m142.44,37.27c.99,0,1.64.45,2.08,1.04l-.64.37c-.3-.4-.83-.71-1.44-.71-1.1,0-1.92.84-1.92,2.02s.82,2.03,1.92,2.03c.58,0,1.08-.28,1.33-.52v-.95h-1.69v-.69h2.48v1.93c-.5.56-1.23.93-2.12.93-1.51,0-2.73-1.09-2.73-2.73s1.22-2.72,2.73-2.72Z"/>
        <path class="cls-1" d="m147.95,38.58v4.04h-.79v-5.26h.81l2.86,3.94v-3.94h.79v5.26h-.77l-2.91-4.04Z"/>
      </g>
    </g>
    <g>
      <path class="cls-1" d="m40.66,36.96c-3.52,2.83-8.79,3.37-12.82,1.31-.73-.37-1.44-.83-2.2-1.32-.29-.19-.59-.38-.89-.57.08-1.01.08-2,.08-2.93V15.23c0-1.11-.89-2.01-2-2.01s-2.01.9-2.01,2.01v18.21c0,.36,0,.72,0,1.08-1.54-.42-3.01-.45-4.35-.05-2.59.76-4.85,3.56-4.08,6.53.33,1.27,1.18,2.35,2.41,3.04.88.5,1.9.76,2.9.76.53,0,1.06-.07,1.57-.22,1.9-.56,3.52-2.05,4.47-4.08.72.46,1.46.93,2.27,1.34,5.38,2.76,12.44,2.04,17.16-1.75.86-.69,1-1.96.31-2.82-.69-.86-1.96-1-2.82-.31Zm-22.52,3.77c-.42.12-.95.05-1.36-.18-.16-.09-.43-.28-.5-.56-.15-.58.53-1.44,1.33-1.67.28-.08.58-.12.88-.12.59,0,1.19.14,1.74.34-.38.92-1.09,1.9-2.09,2.19Z"/>
      <path class="cls-1" d="m28.65,0C12.85,0,0,12.85,0,28.65s12.85,28.65,28.65,28.65,28.65-12.85,28.65-28.65S44.45,0,28.65,0Zm0,53.3c-13.59,0-24.64-11.05-24.64-24.64S15.06,4.01,28.65,4.01s24.64,11.05,24.64,24.64-11.05,24.64-24.64,24.64Z"/>
      <path class="cls-2" d="m44.46,23.32l-3.35-.65,2.83-1.91c.61-.41.77-1.24.36-1.86-.41-.61-1.24-.77-1.86-.36l-2.83,1.91.65-3.35c.14-.73-.33-1.43-1.06-1.57-.73-.14-1.43.33-1.57,1.06l-.65,3.35-1.91-2.83c-.41-.61-1.24-.77-1.86-.36-.61.41-.77,1.24-.36,1.86l1.91,2.83-3.35-.65c-.73-.14-1.43.33-1.57,1.06-.14.73.33,1.43,1.06,1.57l3.35.65-2.83,1.91c-.61.41-.77,1.24-.36,1.86.26.38.68.59,1.11.59.26,0,.52-.07.75-.23l2.83-1.91-.65,3.35c-.14.73.33,1.43,1.06,1.57.09.02.17.02.26.02.63,0,1.19-.44,1.31-1.08l.65-3.35,1.91,2.83c.26.38.68.59,1.11.59.26,0,.52-.07.75-.23.61-.41.77-1.24.36-1.86l-1.91-2.83,3.35.65c.09.02.17.02.26.02.63,0,1.19-.44,1.31-1.08.14-.73-.33-1.43-1.06-1.57Z"/>
    </g>
  </g>
</svg>