<?xml version="1.0" encoding="UTF-8"?>
<svg id="Layer_2" data-name="Layer 2" xmlns="http://www.w3.org/2000/svg" viewBox="0 0 38.06 38.06">
  <defs>
    <style>
      .cls-1 {
        fill: #222221;
        stroke-width: 0px;
      }
    </style>
  </defs>
  <g id="Capa_1" data-name="Capa 1">
    <path class="cls-1" d="m19.03,0C8.52,0,0,8.52,0,19.03h0c0,10.51,8.52,19.03,19.03,19.03s19.03-8.52,19.03-19.03h0C38.06,8.52,29.54,0,19.03,0Zm-4.69,27.51h-3.94v-12.72h3.94v12.72Zm-1.99-14.39c-1.29,0-2.33-1.05-2.33-2.35s1.04-2.35,2.33-2.35,2.33,1.05,2.33,2.35-1.04,2.35-2.33,2.35Zm16.75,14.39h-3.92v-6.68c0-1.83-.7-2.85-2.14-2.85-1.58,0-2.4,1.07-2.4,2.85v6.68h-3.78v-12.72h3.78v1.71s1.14-2.1,3.83-2.1,4.63,1.65,4.63,5.06v8.06Z"/>
  </g>
</svg>