<?xml version="1.0" encoding="utf-8"?>
<!-- Generator: Adobe Illustrator 27.9.0, SVG Export Plug-In . SVG Version: 6.00 Build 0)  -->
<svg version="1.1" id="Layer_1" xmlns="http://www.w3.org/2000/svg" xmlns:xlink="http://www.w3.org/1999/xlink" x="0px" y="0px"
	 viewBox="0 0 1440 320" style="enable-background:new 0 0 1440 320;" xml:space="preserve">
<style type="text/css">
	.st0{fill:#EAE5D8;}
</style>
<path class="st0" d="M0,256l21.8-5.3C43.6,245,87,235,131,192c43.5-43,87-117,131-112c43.5,5,87,91,131,106.7
	c43.4,16.3,87-37.7,131-37.4c43.3-0.3,87,53.7,131,48c43.2-5.3,87-69.3,130-106.6C829.1,53,873,43,916,69.3
	C960,96,1004,160,1047,176c43.9,16,88-16,131-37.3c43.8-21.7,87-31.7,131-26.7c43.7,5,87,27,109,37.3l22,10.7V0h-21.8
	c-21.8,0-65.2,0-109.2,0c-43.5,0-87,0-131,0c-43.5,0-87,0-131,0c-43.4,0-87,0-131,0c-43.3,0-87,0-131,0c-43.2,0-87,0-130,0
	c-44.1,0-88,0-131,0c-44,0-88,0-131,0c-43.9,0-88,0-131,0c-43.8,0-87,0-131,0C87.3,0,44,0,22,0H0V256z"/>
</svg>
